<svg xmlns="http://www.w3.org/2000/svg" xmlns:xlink="http://www.w3.org/1999/xlink" width="500" zoomAndPan="magnify" viewBox="0 0 375 374.999991" height="500" preserveAspectRatio="xMidYMid meet" version="1.0"><defs><g/><clipPath id="6193e6f818"><path d="M 227.488281 155.597656 L 277.738281 155.597656 L 277.738281 242.597656 L 227.488281 242.597656 Z M 227.488281 155.597656 " clip-rule="nonzero"/></clipPath><clipPath id="433baae953"><path d="M 95.667969 160.300781 L 145.917969 160.300781 L 145.917969 247.300781 L 95.667969 247.300781 Z M 95.667969 160.300781 " clip-rule="nonzero"/></clipPath><clipPath id="cd3790beb0"><path d="M 0.667969 0.300781 L 50.648438 0.300781 L 50.648438 87.300781 L 0.667969 87.300781 Z M 0.667969 0.300781 " clip-rule="nonzero"/></clipPath><clipPath id="715a3df8ed"><rect x="0" width="51" y="0" height="88"/></clipPath></defs><rect x="-37.5" width="450" fill="#ffffff" y="-37.499999" height="449.999989" fill-opacity="1"/><rect x="-37.5" width="450" fill="#fff8f6" y="-37.499999" height="449.999989" fill-opacity="1"/><g clip-path="url(#6193e6f818)"><path fill="#eb8907" d="M 264.605469 196.207031 C 265.410156 196.238281 266.199219 196.128906 266.984375 195.953125 C 269.289062 195.425781 271.230469 194.304688 272.707031 192.425781 C 273.734375 191.113281 274.507812 189.660156 275.046875 188.082031 C 275.171875 187.707031 275.25 187.328125 275.242188 186.9375 C 275.242188 186.757812 275.289062 186.648438 275.445312 186.554688 C 275.832031 186.328125 276.128906 186 276.40625 185.644531 C 276.9375 184.964844 277.222656 184.179688 277.4375 183.359375 C 277.453125 183.296875 277.460938 183.234375 277.457031 183.167969 C 277.457031 182.976562 277.351562 182.84375 277.175781 182.796875 C 277.011719 182.75 276.832031 182.816406 276.742188 182.976562 C 276.695312 183.058594 276.671875 183.152344 276.640625 183.238281 C 276.535156 183.570312 276.445312 183.910156 276.308594 184.226562 C 275.890625 185.214844 275.226562 185.949219 274.175781 186.277344 C 273.960938 186.34375 273.757812 186.421875 273.542969 186.476562 C 271.378906 187.019531 269.523438 188.132812 267.839844 189.558594 C 266.554688 190.648438 265.445312 191.894531 264.480469 193.277344 C 264.421875 193.359375 264.390625 193.476562 264.253906 193.511719 C 264.253906 193.457031 264.25 193.425781 264.253906 193.394531 C 264.652344 191.316406 265.050781 189.238281 265.449219 187.160156 C 265.554688 186.613281 265.652344 186.0625 265.753906 185.511719 C 265.773438 185.394531 265.796875 185.289062 265.949219 185.269531 C 266.496094 185.191406 267 184.964844 267.507812 184.761719 C 269.03125 184.148438 270.472656 183.394531 271.753906 182.359375 C 273.898438 180.628906 275.566406 178.550781 276.339844 175.855469 C 276.503906 175.277344 276.6875 174.699219 276.777344 174.113281 C 276.839844 173.707031 276.960938 173.347656 277.132812 172.984375 C 277.421875 172.367188 277.46875 171.707031 277.433594 171.035156 C 277.421875 170.785156 277.25 170.621094 277.039062 170.621094 C 276.832031 170.621094 276.671875 170.785156 276.648438 171.039062 C 276.636719 171.140625 276.640625 171.25 276.640625 171.351562 C 276.675781 172.351562 276.300781 173.15625 275.523438 173.78125 C 275.417969 173.867188 275.3125 173.957031 275.207031 174.042969 C 274.296875 174.78125 273.316406 175.410156 272.292969 175.984375 C 271.359375 176.511719 270.429688 177.054688 269.527344 177.632812 C 268.699219 178.167969 267.996094 178.855469 267.441406 179.679688 C 267.121094 180.160156 266.839844 180.667969 266.535156 181.160156 C 266.488281 181.242188 266.4375 181.316406 266.390625 181.394531 C 266.34375 181.324219 266.347656 181.28125 266.351562 181.242188 C 266.445312 179.546875 266.539062 177.855469 266.640625 176.164062 C 266.664062 175.71875 266.761719 175.292969 266.960938 174.886719 C 267.25 174.300781 267.558594 173.722656 267.800781 173.121094 C 268.554688 171.269531 268.902344 169.339844 268.769531 167.34375 C 268.640625 165.4375 268.203125 163.601562 267.503906 161.824219 C 267.046875 160.664062 266.46875 159.566406 265.871094 158.472656 C 265.761719 158.273438 265.691406 158.074219 265.671875 157.847656 C 265.625 157.257812 265.5625 156.671875 265.5 156.085938 C 265.492188 155.992188 265.472656 155.898438 265.445312 155.808594 C 265.410156 155.6875 265.324219 155.613281 265.1875 155.625 C 265.050781 155.636719 264.992188 155.738281 264.96875 155.855469 C 264.960938 155.898438 264.960938 155.941406 264.960938 155.984375 C 264.957031 156.46875 264.960938 156.949219 264.953125 157.433594 C 264.941406 158.261719 264.78125 159.066406 264.511719 159.847656 C 264.21875 160.703125 263.90625 161.550781 263.578125 162.398438 C 262.707031 164.644531 262.578125 166.941406 263.066406 169.292969 C 263.503906 171.398438 264.367188 173.335938 265.371094 175.21875 C 265.71875 175.871094 265.949219 176.527344 265.84375 177.269531 C 265.816406 177.460938 265.832031 177.652344 265.816406 177.839844 C 265.671875 179.496094 265.527344 181.15625 265.382812 182.8125 C 265.367188 182.996094 265.335938 183.175781 265.3125 183.355469 C 265.234375 183.289062 265.207031 183.226562 265.183594 183.15625 C 265.109375 182.941406 265.039062 182.71875 264.953125 182.5 C 264.480469 181.285156 263.757812 180.226562 262.84375 179.304688 C 260.691406 177.125 258.316406 175.242188 255.535156 173.910156 C 255.234375 173.765625 255.066406 173.5625 255.003906 173.226562 C 254.808594 172.167969 254.59375 171.117188 254.378906 170.066406 C 254.359375 169.960938 254.332031 169.859375 254.285156 169.769531 C 254.21875 169.648438 254.105469 169.589844 253.964844 169.609375 C 253.816406 169.628906 253.707031 169.714844 253.679688 169.867188 C 253.660156 169.964844 253.664062 170.074219 253.679688 170.175781 C 253.890625 171.390625 254.070312 172.609375 254.332031 173.8125 C 255.171875 177.738281 257.195312 180.953125 260.230469 183.550781 C 260.921875 184.136719 261.667969 184.652344 262.496094 185.035156 C 263.230469 185.378906 263.988281 185.542969 264.800781 185.382812 C 264.867188 185.371094 264.941406 185.367188 265.011719 185.355469 C 265.027344 185.675781 263.53125 193.539062 263.386719 193.917969 C 263.375 193.902344 263.351562 193.894531 263.34375 193.875 C 263.308594 193.789062 263.277344 193.699219 263.246094 193.613281 C 262.929688 192.566406 262.453125 191.597656 261.847656 190.683594 C 260.644531 188.863281 259.082031 187.410156 257.273438 186.203125 C 256.363281 185.59375 255.382812 185.09375 254.414062 184.589844 C 254.21875 184.484375 254.117188 184.351562 254.0625 184.144531 C 253.902344 183.523438 253.734375 182.902344 253.566406 182.28125 C 253.542969 182.191406 253.519531 182.097656 253.472656 182.015625 C 253.398438 181.867188 253.253906 181.796875 253.109375 181.828125 C 252.953125 181.855469 252.832031 181.992188 252.824219 182.164062 C 252.824219 182.246094 252.839844 182.332031 252.859375 182.414062 C 253.160156 183.585938 253.421875 184.769531 253.761719 185.929688 C 254.457031 188.324219 255.644531 190.453125 257.328125 192.300781 C 258.394531 193.46875 259.566406 194.503906 260.988281 195.21875 C 261.484375 195.46875 262.003906 195.679688 262.515625 195.910156 C 262.65625 195.972656 262.792969 196.039062 262.945312 196.113281 C 262.914062 196.242188 262.890625 196.347656 262.867188 196.445312 C 262.449219 198.078125 262.042969 199.714844 261.605469 201.339844 C 261.285156 202.539062 260.925781 203.730469 260.582031 204.921875 C 260.550781 205.023438 260.542969 205.148438 260.421875 205.214844 C 260.40625 205.183594 260.390625 205.167969 260.386719 205.148438 C 260.363281 205.035156 260.339844 204.921875 260.316406 204.808594 C 259.894531 202.785156 259.105469 200.933594 257.859375 199.28125 C 256.621094 197.640625 255.105469 196.304688 253.378906 195.191406 C 252.359375 194.53125 251.261719 194.015625 250.167969 193.492188 C 250.011719 193.414062 249.945312 193.328125 249.941406 193.160156 C 249.941406 192.953125 249.910156 192.738281 249.902344 192.53125 C 249.851562 191.46875 249.855469 190.40625 249.996094 189.34375 C 250.015625 189.199219 250.027344 189.050781 250.015625 188.902344 C 250.003906 188.730469 249.894531 188.625 249.742188 188.601562 C 249.585938 188.578125 249.453125 188.644531 249.378906 188.792969 C 249.355469 188.851562 249.332031 188.910156 249.324219 188.972656 C 249.242188 189.714844 249.136719 190.457031 249.09375 191.203125 C 249.03125 192.222656 249.136719 193.242188 249.269531 194.257812 C 249.457031 195.65625 249.785156 197.015625 250.371094 198.300781 C 251.601562 200.992188 253.4375 203.199219 255.789062 204.980469 C 256.9375 205.851562 258.1875 206.539062 259.589844 206.925781 C 259.648438 206.941406 259.703125 206.972656 259.785156 207.007812 C 259.722656 207.175781 259.667969 207.332031 259.601562 207.484375 C 258.546875 209.851562 257.503906 212.222656 256.4375 214.582031 C 255.675781 216.261719 254.847656 217.90625 253.875 219.476562 C 253.820312 219.570312 253.757812 219.65625 253.699219 219.75 C 253.636719 219.675781 253.628906 219.625 253.625 219.578125 C 253.601562 219.125 253.589844 218.671875 253.558594 218.21875 C 253.378906 215.710938 252.84375 213.285156 251.875 210.957031 C 250.730469 208.214844 249.28125 205.644531 247.539062 203.234375 C 247.234375 202.808594 246.964844 202.355469 246.695312 201.902344 C 246.554688 201.667969 246.527344 201.402344 246.617188 201.140625 C 246.902344 200.296875 247.011719 199.417969 247.152344 198.546875 C 247.167969 198.457031 247.175781 198.355469 247.160156 198.265625 C 247.128906 198.085938 246.988281 197.957031 246.820312 197.941406 C 246.664062 197.929688 246.503906 198.015625 246.4375 198.171875 C 246.398438 198.257812 246.382812 198.351562 246.367188 198.445312 C 246.292969 198.902344 246.230469 199.363281 246.140625 199.820312 C 245.96875 200.691406 245.671875 201.523438 245.359375 202.351562 C 244.835938 203.742188 244.5 205.167969 244.425781 206.65625 C 244.328125 208.84375 244.789062 210.925781 245.636719 212.929688 C 246.507812 214.996094 247.703125 216.863281 249.117188 218.589844 C 250.074219 219.757812 251.042969 220.910156 252.210938 221.878906 C 252.242188 221.902344 252.265625 221.9375 252.296875 221.980469 C 252.253906 222.058594 252.21875 222.128906 252.171875 222.203125 C 251.855469 222.675781 251.554688 223.160156 251.222656 223.621094 C 250.148438 225.121094 249.050781 226.597656 247.988281 228.105469 C 246.621094 230.042969 244.9375 231.667969 243.121094 233.175781 C 243.039062 233.246094 242.941406 233.308594 242.808594 233.410156 C 242.816406 233.253906 242.8125 233.160156 242.828125 233.074219 C 242.875 232.773438 242.917969 232.46875 242.980469 232.167969 C 243.25 230.890625 243.527344 229.617188 243.800781 228.339844 C 243.960938 227.574219 244.070312 226.800781 244.277344 226.050781 C 244.617188 224.824219 244.785156 223.574219 244.882812 222.3125 C 245.019531 220.601562 244.890625 218.902344 244.53125 217.226562 C 244.074219 215.097656 243.285156 213.140625 241.769531 211.527344 C 241.539062 211.28125 241.421875 210.980469 241.496094 210.625 C 241.542969 210.398438 241.542969 210.164062 241.585938 209.9375 C 241.734375 209.117188 241.890625 208.300781 242.046875 207.488281 C 242.101562 207.210938 242.019531 207.019531 241.796875 206.949219 C 241.582031 206.878906 241.390625 206.984375 241.292969 207.253906 C 241.226562 207.429688 241.167969 207.617188 241.140625 207.800781 C 241.015625 208.6875 240.902344 209.574219 240.78125 210.460938 C 240.734375 210.800781 240.753906 211.160156 240.585938 211.476562 C 239.882812 212.820312 239.203125 214.175781 238.476562 215.503906 C 237.753906 216.820312 237.246094 218.203125 237.003906 219.683594 C 236.734375 221.351562 236.828125 223 237.171875 224.644531 C 237.445312 225.972656 237.894531 227.238281 238.414062 228.484375 C 239.195312 230.347656 240.132812 232.121094 241.375 233.722656 C 241.4375 233.796875 241.496094 233.875 241.539062 233.957031 C 241.671875 234.207031 241.640625 234.324219 241.402344 234.480469 C 240.960938 234.769531 240.519531 235.054688 240.070312 235.332031 C 238.386719 236.371094 236.71875 237.433594 235.011719 238.4375 C 233.8125 239.140625 232.5625 239.753906 231.335938 240.410156 C 230.15625 241.035156 229.027344 241.761719 227.730469 242.144531 C 227.542969 242.203125 227.488281 242.375 227.558594 242.554688 C 227.679688 242.863281 227.808594 242.921875 228.121094 242.777344 C 229.238281 242.265625 230.351562 241.746094 231.433594 241.152344 C 233.457031 240.042969 235.519531 239.007812 237.488281 237.800781 C 238.898438 236.941406 240.34375 236.136719 241.699219 235.1875 C 241.878906 235.0625 242.066406 234.867188 242.257812 234.855469 C 242.449219 234.84375 242.65625 235.015625 242.851562 235.117188 C 244.347656 235.90625 245.902344 236.542969 247.546875 236.941406 C 249.738281 237.476562 251.890625 237.414062 254.015625 236.648438 C 255.433594 236.140625 256.746094 235.441406 257.984375 234.582031 C 258.304688 234.363281 258.636719 234.160156 258.980469 233.976562 C 259.695312 233.597656 260.421875 233.242188 261.148438 232.875 C 261.789062 232.546875 262.273438 232.027344 262.765625 231.527344 C 262.789062 231.503906 262.808594 231.476562 262.824219 231.449219 C 262.929688 231.277344 262.914062 231.089844 262.785156 230.957031 C 262.652344 230.820312 262.4375 230.804688 262.265625 230.925781 C 262.179688 230.988281 262.105469 231.0625 262.035156 231.140625 C 261.546875 231.675781 260.972656 232.089844 260.324219 232.425781 C 259.667969 232.769531 258.980469 232.953125 258.234375 232.953125 C 257.5 232.953125 256.796875 232.777344 256.089844 232.59375 C 254.714844 232.230469 253.316406 231.984375 251.886719 231.957031 C 250.90625 231.941406 249.929688 232.003906 248.957031 232.125 C 247.449219 232.3125 245.957031 232.585938 244.535156 233.148438 C 244.484375 233.167969 244.425781 233.171875 244.375 233.179688 C 247.902344 230.109375 250.71875 226.460938 253.191406 222.53125 C 253.300781 222.550781 253.386719 222.5625 253.46875 222.585938 C 254.652344 222.9375 255.863281 223.164062 257.078125 223.355469 C 258.425781 223.566406 259.78125 223.652344 261.136719 223.492188 C 263.636719 223.195312 265.984375 222.429688 268.195312 221.234375 C 269.277344 220.644531 270.238281 219.902344 271.027344 218.941406 C 271.375 218.519531 271.765625 218.136719 272.15625 217.75 C 272.480469 217.421875 272.738281 217.058594 272.910156 216.628906 C 272.941406 216.554688 272.96875 216.472656 272.980469 216.386719 C 273.019531 216.160156 272.933594 215.996094 272.75 215.925781 C 272.566406 215.855469 272.386719 215.925781 272.269531 216.125 C 272.230469 216.183594 272.203125 216.257812 272.175781 216.324219 C 271.976562 216.835938 271.628906 217.222656 271.167969 217.503906 C 270.792969 217.734375 270.40625 217.957031 270.011719 218.152344 C 269.050781 218.632812 268.03125 218.847656 266.960938 218.84375 C 265.785156 218.839844 264.632812 218.660156 263.472656 218.496094 C 261.882812 218.277344 260.304688 218.289062 258.734375 218.660156 C 257.292969 219.003906 255.890625 219.441406 254.667969 220.316406 C 254.636719 220.335938 254.59375 220.34375 254.550781 220.359375 C 255.308594 218.917969 256.089844 217.511719 256.796875 216.066406 C 257.507812 214.613281 258.183594 213.132812 258.816406 211.640625 C 259.441406 210.164062 260 208.660156 260.582031 207.175781 C 260.996094 207.316406 261.386719 207.484375 261.792969 207.578125 C 262.417969 207.722656 263.050781 207.839844 263.6875 207.929688 C 265.09375 208.125 266.476562 208.015625 267.835938 207.5625 C 269.261719 207.089844 270.535156 206.332031 271.738281 205.449219 C 272.777344 204.6875 273.757812 203.859375 274.464844 202.757812 C 274.527344 202.660156 274.65625 202.601562 274.765625 202.539062 C 275.199219 202.285156 275.648438 202.058594 276.070312 201.777344 C 276.535156 201.472656 276.8125 201.007812 277.039062 200.515625 C 277.132812 200.3125 277.0625 200.121094 276.894531 200.015625 C 276.730469 199.914062 276.53125 199.953125 276.390625 200.125 C 276.316406 200.214844 276.257812 200.316406 276.203125 200.417969 C 275.988281 200.816406 275.671875 201.113281 275.289062 201.355469 C 274.472656 201.878906 273.578125 202.167969 272.617188 202.222656 C 271.933594 202.261719 271.246094 202.261719 270.566406 202.277344 C 268.722656 202.328125 266.910156 202.566406 265.164062 203.171875 C 263.742188 203.667969 262.402344 204.316406 261.300781 205.382812 C 261.277344 205.40625 261.238281 205.410156 261.175781 205.441406 C 262.179688 202.351562 262.96875 199.246094 263.710938 196.117188 C 264.039062 196.148438 264.332031 196.183594 264.625 196.195312 Z M 266.507812 183.097656 C 266.929688 182.046875 267.453125 181.054688 268.101562 180.125 C 268.617188 179.378906 269.253906 178.753906 270.015625 178.265625 C 270.828125 177.746094 271.660156 177.25 272.503906 176.78125 C 273.589844 176.175781 274.640625 175.511719 275.617188 174.738281 C 275.671875 174.695312 275.734375 174.664062 275.839844 174.589844 C 275.808594 174.746094 275.792969 174.847656 275.769531 174.949219 C 275.160156 177.585938 273.6875 179.675781 271.65625 181.410156 C 270.742188 182.195312 269.742188 182.855469 268.652344 183.375 C 267.941406 183.714844 267.214844 184.03125 266.496094 184.351562 C 266.394531 184.398438 266.28125 184.429688 266.113281 184.492188 C 266.214844 183.964844 266.335938 183.519531 266.507812 183.09375 Z M 263.710938 168.40625 C 263.433594 166.566406 263.5625 164.773438 264.199219 163.023438 C 264.539062 162.089844 264.871094 161.160156 265.199219 160.222656 C 265.296875 159.949219 265.363281 159.660156 265.457031 159.347656 C 265.507812 159.414062 265.546875 159.449219 265.566406 159.492188 C 266.3125 161.019531 267.023438 162.554688 267.441406 164.210938 C 267.789062 165.59375 268.015625 166.996094 267.984375 168.429688 C 267.949219 169.972656 267.628906 171.457031 267.039062 172.882812 C 266.808594 173.445312 266.515625 173.984375 266.246094 174.53125 C 266.210938 174.601562 266.148438 174.664062 266.078125 174.75 C 266.019531 174.6875 265.957031 174.648438 265.925781 174.589844 C 264.902344 172.628906 264.050781 170.609375 263.714844 168.402344 Z M 263.753906 184.617188 C 263.3125 184.542969 262.90625 184.375 262.515625 184.164062 C 261.664062 183.710938 260.90625 183.125 260.199219 182.472656 C 257.988281 180.429688 256.390625 177.992188 255.480469 175.109375 C 255.445312 175 255.421875 174.886719 255.394531 174.773438 C 255.390625 174.757812 255.40625 174.734375 255.421875 174.691406 C 255.503906 174.734375 255.585938 174.765625 255.664062 174.808594 C 257.933594 176.050781 259.957031 177.625 261.820312 179.410156 C 262.605469 180.164062 263.3125 180.988281 263.816406 181.960938 C 264.15625 182.609375 264.449219 183.273438 264.535156 184.007812 C 264.554688 184.195312 264.558594 184.382812 264.574219 184.589844 C 264.273438 184.6875 264.007812 184.664062 263.75 184.621094 Z M 264.144531 195.199219 C 265.425781 193.152344 266.914062 191.277344 268.832031 189.785156 C 269.953125 188.90625 271.140625 188.121094 272.496094 187.652344 C 273.121094 187.433594 273.753906 187.25 274.449219 187.03125 C 274.40625 187.28125 274.402344 187.480469 274.339844 187.664062 C 273.734375 189.503906 272.835938 191.1875 271.496094 192.601562 C 270.183594 193.992188 268.539062 194.808594 266.679688 195.199219 C 265.960938 195.351562 265.234375 195.476562 264.492188 195.453125 C 264.351562 195.445312 264.210938 195.417969 264.042969 195.402344 C 264.089844 195.308594 264.109375 195.25 264.140625 195.195312 Z M 262.441406 195.015625 C 260.695312 194.339844 259.261719 193.230469 258.003906 191.863281 C 256.371094 190.085938 255.222656 188.039062 254.53125 185.730469 C 254.511719 185.671875 254.507812 185.613281 254.484375 185.5 C 254.574219 185.53125 254.617188 185.539062 254.652344 185.5625 C 256.152344 186.398438 257.613281 187.296875 258.890625 188.464844 C 260.222656 189.6875 261.328125 191.082031 262.070312 192.742188 C 262.378906 193.425781 262.609375 194.136719 262.753906 194.875 C 262.765625 194.945312 262.765625 195.015625 262.78125 195.144531 C 262.644531 195.09375 262.542969 195.058594 262.441406 195.015625 Z M 259.195312 205.976562 C 258.015625 205.550781 256.953125 204.910156 255.972656 204.132812 C 253.878906 202.464844 252.222656 200.449219 251.105469 198.007812 C 250.582031 196.859375 250.277344 195.644531 250.09375 194.402344 C 250.09375 194.378906 250.097656 194.359375 250.109375 194.300781 C 250.167969 194.316406 250.207031 194.316406 250.242188 194.339844 C 251.777344 195.132812 253.285156 195.980469 254.625 197.085938 C 256.285156 198.457031 257.667969 200.050781 258.570312 202.03125 C 259.121094 203.234375 259.488281 204.496094 259.675781 205.804688 C 259.6875 205.898438 259.6875 205.988281 259.691406 206.125 C 259.503906 206.070312 259.34375 206.03125 259.191406 205.976562 Z M 242.222656 231.847656 C 242.128906 232.300781 242.066406 232.757812 241.972656 233.28125 C 241.882812 233.171875 241.839844 233.128906 241.804688 233.078125 C 240.09375 230.570312 238.785156 227.871094 238.039062 224.917969 C 237.691406 223.53125 237.546875 222.117188 237.671875 220.683594 C 237.8125 219.042969 238.285156 217.511719 239.066406 216.0625 C 239.738281 214.832031 240.378906 213.585938 241.03125 212.347656 C 241.085938 212.25 241.136719 212.148438 241.214844 212 C 241.378906 212.191406 241.527344 212.335938 241.644531 212.503906 C 242.257812 213.367188 242.773438 214.285156 243.132812 215.277344 C 243.691406 216.804688 243.988281 218.378906 244.09375 220 C 244.207031 221.734375 244.019531 223.445312 243.648438 225.144531 C 243.167969 227.375 242.691406 229.609375 242.21875 231.84375 Z M 244.476562 234.007812 C 246.09375 233.363281 247.789062 233.042969 249.511719 232.871094 C 250.578125 232.761719 251.652344 232.71875 252.726562 232.800781 C 253.820312 232.890625 254.886719 233.125 255.953125 233.382812 C 256.472656 233.507812 257 233.601562 257.527344 233.710938 C 257.574219 233.722656 257.621094 233.738281 257.703125 233.761719 C 257.648438 233.820312 257.621094 233.859375 257.585938 233.886719 C 255.957031 235.027344 254.210938 235.902344 252.25 236.316406 C 250.800781 236.621094 249.363281 236.535156 247.925781 236.222656 C 246.375 235.878906 244.917969 235.273438 243.488281 234.605469 C 243.453125 234.585938 243.421875 234.558594 243.320312 234.488281 C 243.746094 234.308594 244.109375 234.152344 244.476562 234.003906 Z M 252.824219 220.898438 C 252.820312 221.03125 252.789062 221.160156 252.769531 221.292969 C 252.742188 221.300781 252.714844 221.308594 252.683594 221.316406 C 252.597656 221.246094 252.507812 221.175781 252.429688 221.097656 C 251.261719 219.992188 250.253906 218.75 249.257812 217.496094 C 248.113281 216.054688 247.175781 214.488281 246.4375 212.796875 C 245.621094 210.929688 245.15625 208.988281 245.210938 206.9375 C 245.246094 205.472656 245.5625 204.058594 246.085938 202.691406 C 246.101562 202.644531 246.132812 202.605469 246.160156 202.546875 C 246.203125 202.582031 246.230469 202.597656 246.246094 202.621094 C 246.964844 203.734375 247.703125 204.839844 248.402344 205.964844 C 249.539062 207.792969 250.527344 209.695312 251.3125 211.703125 C 251.96875 213.390625 252.394531 215.132812 252.628906 216.925781 C 252.800781 218.246094 252.859375 219.570312 252.824219 220.898438 Z M 258.78125 219.464844 C 260.34375 219.105469 261.902344 219.09375 263.484375 219.304688 C 264.503906 219.4375 265.527344 219.554688 266.558594 219.628906 C 267.464844 219.699219 268.363281 219.589844 269.238281 219.316406 C 269.34375 219.285156 269.457031 219.253906 269.597656 219.273438 C 269.515625 219.34375 269.4375 219.425781 269.355469 219.496094 C 268.632812 220.101562 267.820312 220.570312 266.972656 220.96875 C 265.167969 221.820312 263.292969 222.40625 261.3125 222.671875 C 260.0625 222.839844 258.808594 222.816406 257.566406 222.625 C 256.425781 222.449219 255.289062 222.21875 254.152344 222.011719 C 254.050781 221.992188 253.949219 221.957031 253.792969 221.914062 C 253.902344 221.820312 253.960938 221.761719 254.027344 221.710938 C 255.433594 220.585938 257.027344 219.871094 258.78125 219.46875 Z M 261.328125 206.386719 C 262.179688 205.480469 263.222656 204.859375 264.34375 204.355469 C 265.730469 203.730469 267.191406 203.382812 268.695312 203.230469 C 269.5 203.144531 270.3125 203.128906 271.117188 203.09375 C 271.808594 203.0625 272.503906 203.042969 273.246094 203.015625 C 273.0625 203.289062 272.84375 203.5 272.621094 203.703125 C 271.617188 204.609375 270.527344 205.394531 269.339844 206.042969 C 268.390625 206.566406 267.394531 206.941406 266.328125 207.128906 C 265.492188 207.277344 264.652344 207.273438 263.8125 207.15625 C 263.15625 207.070312 262.503906 206.957031 261.851562 206.839844 C 261.628906 206.796875 261.410156 206.710938 261.136719 206.628906 C 261.222656 206.527344 261.273438 206.457031 261.332031 206.394531 Z M 261.328125 206.386719 " fill-opacity="1" fill-rule="nonzero"/></g><g fill="#eb8907" fill-opacity="1"><g transform="translate(142.68788, 207.143307)"><g><path d="M 17.40625 -26.625 C 17.875 -25.707031 18.171875 -24.675781 18.296875 -23.53125 C 18.421875 -22.394531 18.4375 -21.234375 18.34375 -20.046875 C 18.25 -18.867188 18.09375 -17.757812 17.875 -16.71875 C 17.664062 -15.675781 17.457031 -14.796875 17.25 -14.078125 C 17.039062 -13.367188 16.910156 -12.921875 16.859375 -12.734375 L 16.8125 -12.609375 C 14.0625 -4.148438 10.695312 0.078125 6.71875 0.078125 C 6.5 0.078125 6.273438 0.0664062 6.046875 0.046875 C 4.742188 -0.0976562 3.675781 -0.78125 2.84375 -2 C 2.113281 -3.082031 1.613281 -4.425781 1.34375 -6.03125 C 1.082031 -7.632812 1.007812 -9.289062 1.125 -11 C 1.238281 -12.707031 1.488281 -14.269531 1.875 -15.6875 C 3.789062 -22.675781 6.320312 -27.03125 9.46875 -28.75 C 10.382812 -29.28125 11.242188 -29.550781 12.046875 -29.5625 C 12.859375 -29.582031 13.546875 -29.519531 14.109375 -29.375 C 15.554688 -28.9375 16.65625 -28.019531 17.40625 -26.625 Z M 14.859375 -13.390625 C 15.109375 -14.171875 15.359375 -15.097656 15.609375 -16.171875 C 15.859375 -17.242188 16.046875 -18.363281 16.171875 -19.53125 C 16.296875 -20.695312 16.316406 -21.804688 16.234375 -22.859375 C 16.148438 -23.921875 15.914062 -24.84375 15.53125 -25.625 C 15.050781 -26.488281 14.367188 -27.046875 13.484375 -27.296875 C 13.148438 -27.410156 12.816406 -27.46875 12.484375 -27.46875 C 11.816406 -27.46875 11.160156 -27.285156 10.515625 -26.921875 C 9.898438 -26.585938 9.222656 -26 8.484375 -25.15625 C 7.753906 -24.320312 7 -23.097656 6.21875 -21.484375 C 5.4375 -19.878906 4.671875 -17.753906 3.921875 -15.109375 C 3.535156 -13.691406 3.304688 -12.207031 3.234375 -10.65625 C 3.160156 -9.113281 3.242188 -7.679688 3.484375 -6.359375 C 3.722656 -5.035156 4.101562 -3.988281 4.625 -3.21875 C 5.101562 -2.519531 5.660156 -2.128906 6.296875 -2.046875 C 6.828125 -1.992188 7.421875 -2.097656 8.078125 -2.359375 C 8.734375 -2.617188 9.425781 -3.140625 10.15625 -3.921875 C 10.894531 -4.703125 11.65625 -5.847656 12.4375 -7.359375 C 13.21875 -8.878906 14.007812 -10.847656 14.8125 -13.265625 Z M 14.859375 -13.390625 "/></g></g></g><g fill="#eb8907" fill-opacity="1"><g transform="translate(161.842187, 207.143307)"><g><path d="M 6.046875 -27.96875 C 7.128906 -28.6875 8.21875 -29.085938 9.3125 -29.171875 C 10.414062 -29.253906 11.472656 -29.140625 12.484375 -28.828125 C 13.503906 -28.523438 14.414062 -28.128906 15.21875 -27.640625 C 16.03125 -27.160156 16.675781 -26.679688 17.15625 -26.203125 C 17.375 -26.015625 17.484375 -25.773438 17.484375 -25.484375 C 17.484375 -25.191406 17.382812 -24.929688 17.1875 -24.703125 C 17 -24.515625 16.757812 -24.410156 16.46875 -24.390625 C 16.175781 -24.378906 15.929688 -24.472656 15.734375 -24.671875 C 15.679688 -24.722656 15.488281 -24.878906 15.15625 -25.140625 C 14.820312 -25.410156 14.367188 -25.710938 13.796875 -26.046875 C 13.222656 -26.378906 12.582031 -26.65625 11.875 -26.875 C 11.164062 -27.09375 10.414062 -27.164062 9.625 -27.09375 C 8.832031 -27.03125 8.03125 -26.734375 7.21875 -26.203125 C 6.082031 -25.453125 5.441406 -24.46875 5.296875 -23.25 C 5.210938 -22.25 5.46875 -21.15625 6.0625 -19.96875 C 6.664062 -18.789062 7.566406 -17.613281 8.765625 -16.4375 C 9.816406 -15.4375 10.804688 -14.40625 11.734375 -13.34375 C 12.671875 -12.289062 13.453125 -11.242188 14.078125 -10.203125 C 14.710938 -9.160156 15.082031 -8.125 15.1875 -7.09375 C 15.300781 -6.0625 15.050781 -5.0625 14.4375 -4.09375 C 13.820312 -3.03125 13.015625 -2.1875 12.015625 -1.5625 C 11.015625 -0.9375 9.914062 -0.554688 8.71875 -0.421875 C 8.46875 -0.421875 8.21875 -0.421875 7.96875 -0.421875 C 5.070312 -0.421875 2.347656 -1.8125 -0.203125 -4.59375 C -0.398438 -4.8125 -0.488281 -5.066406 -0.46875 -5.359375 C -0.457031 -5.648438 -0.34375 -5.894531 -0.125 -6.09375 C 0.09375 -6.289062 0.347656 -6.378906 0.640625 -6.359375 C 0.929688 -6.347656 1.175781 -6.234375 1.375 -6.015625 C 2.488281 -4.753906 3.664062 -3.828125 4.90625 -3.234375 C 6.144531 -2.640625 7.347656 -2.410156 8.515625 -2.546875 C 10.328125 -2.710938 11.703125 -3.585938 12.640625 -5.171875 C 13.367188 -6.335938 13.203125 -7.722656 12.140625 -9.328125 C 11.085938 -10.929688 9.472656 -12.800781 7.296875 -14.9375 C 5.859375 -16.351562 4.789062 -17.789062 4.09375 -19.25 C 3.394531 -20.71875 3.101562 -22.117188 3.21875 -23.453125 C 3.40625 -25.316406 4.347656 -26.820312 6.046875 -27.96875 Z M 6.046875 -27.96875 "/></g></g></g><g fill="#eb8907" fill-opacity="1"><g transform="translate(179.410732, 207.143307)"><g><path d="M 6.046875 -27.96875 C 7.128906 -28.6875 8.21875 -29.085938 9.3125 -29.171875 C 10.414062 -29.253906 11.472656 -29.140625 12.484375 -28.828125 C 13.503906 -28.523438 14.414062 -28.128906 15.21875 -27.640625 C 16.03125 -27.160156 16.675781 -26.679688 17.15625 -26.203125 C 17.375 -26.015625 17.484375 -25.773438 17.484375 -25.484375 C 17.484375 -25.191406 17.382812 -24.929688 17.1875 -24.703125 C 17 -24.515625 16.757812 -24.410156 16.46875 -24.390625 C 16.175781 -24.378906 15.929688 -24.472656 15.734375 -24.671875 C 15.679688 -24.722656 15.488281 -24.878906 15.15625 -25.140625 C 14.820312 -25.410156 14.367188 -25.710938 13.796875 -26.046875 C 13.222656 -26.378906 12.582031 -26.65625 11.875 -26.875 C 11.164062 -27.09375 10.414062 -27.164062 9.625 -27.09375 C 8.832031 -27.03125 8.03125 -26.734375 7.21875 -26.203125 C 6.082031 -25.453125 5.441406 -24.46875 5.296875 -23.25 C 5.210938 -22.25 5.46875 -21.15625 6.0625 -19.96875 C 6.664062 -18.789062 7.566406 -17.613281 8.765625 -16.4375 C 9.816406 -15.4375 10.804688 -14.40625 11.734375 -13.34375 C 12.671875 -12.289062 13.453125 -11.242188 14.078125 -10.203125 C 14.710938 -9.160156 15.082031 -8.125 15.1875 -7.09375 C 15.300781 -6.0625 15.050781 -5.0625 14.4375 -4.09375 C 13.820312 -3.03125 13.015625 -2.1875 12.015625 -1.5625 C 11.015625 -0.9375 9.914062 -0.554688 8.71875 -0.421875 C 8.46875 -0.421875 8.21875 -0.421875 7.96875 -0.421875 C 5.070312 -0.421875 2.347656 -1.8125 -0.203125 -4.59375 C -0.398438 -4.8125 -0.488281 -5.066406 -0.46875 -5.359375 C -0.457031 -5.648438 -0.34375 -5.894531 -0.125 -6.09375 C 0.09375 -6.289062 0.347656 -6.378906 0.640625 -6.359375 C 0.929688 -6.347656 1.175781 -6.234375 1.375 -6.015625 C 2.488281 -4.753906 3.664062 -3.828125 4.90625 -3.234375 C 6.144531 -2.640625 7.347656 -2.410156 8.515625 -2.546875 C 10.328125 -2.710938 11.703125 -3.585938 12.640625 -5.171875 C 13.367188 -6.335938 13.203125 -7.722656 12.140625 -9.328125 C 11.085938 -10.929688 9.472656 -12.800781 7.296875 -14.9375 C 5.859375 -16.351562 4.789062 -17.789062 4.09375 -19.25 C 3.394531 -20.71875 3.101562 -22.117188 3.21875 -23.453125 C 3.40625 -25.316406 4.347656 -26.820312 6.046875 -27.96875 Z M 6.046875 -27.96875 "/></g></g></g><g fill="#eb8907" fill-opacity="1"><g transform="translate(196.979277, 207.143307)"><g><path d="M 17.234375 -28.84375 C 17.515625 -28.84375 17.75 -28.742188 17.9375 -28.546875 C 18.132812 -28.347656 18.234375 -28.113281 18.234375 -27.84375 C 18.234375 -27.53125 18.132812 -27.273438 17.9375 -27.078125 C 17.75 -26.890625 17.515625 -26.796875 17.234375 -26.796875 L 11.0625 -26.796875 L 6.96875 -1.453125 C 6.882812 -0.867188 6.550781 -0.578125 5.96875 -0.578125 C 5.914062 -0.578125 5.859375 -0.59375 5.796875 -0.625 C 5.523438 -0.65625 5.304688 -0.785156 5.140625 -1.015625 C 4.972656 -1.253906 4.914062 -1.515625 4.96875 -1.796875 L 8.96875 -26.796875 L 3.125 -26.796875 C 2.820312 -26.796875 2.570312 -26.890625 2.375 -27.078125 C 2.1875 -27.273438 2.09375 -27.53125 2.09375 -27.84375 C 2.09375 -28.113281 2.1875 -28.347656 2.375 -28.546875 C 2.570312 -28.742188 2.820312 -28.84375 3.125 -28.84375 Z M 17.234375 -28.84375 "/></g></g></g><g fill="#eb8907" fill-opacity="1"><g transform="translate(213.003797, 207.143307)"><g><path d="M 19.453125 -28.71875 C 19.722656 -28.71875 19.960938 -28.617188 20.171875 -28.421875 C 20.378906 -28.222656 20.484375 -27.988281 20.484375 -27.71875 C 20.484375 -27.40625 20.378906 -27.148438 20.171875 -26.953125 C 19.960938 -26.765625 19.722656 -26.671875 19.453125 -26.671875 L 6.515625 -26.671875 L 4.59375 -14.6875 L 16.4375 -14.6875 C 16.71875 -14.6875 16.960938 -14.582031 17.171875 -14.375 C 17.378906 -14.164062 17.484375 -13.921875 17.484375 -13.640625 C 17.484375 -13.367188 17.378906 -13.128906 17.171875 -12.921875 C 16.960938 -12.710938 16.71875 -12.609375 16.4375 -12.609375 L 4.25 -12.609375 L 2.546875 -1.84375 L 15.15625 -1.84375 C 15.425781 -1.84375 15.664062 -1.734375 15.875 -1.515625 C 16.082031 -1.304688 16.1875 -1.066406 16.1875 -0.796875 C 16.1875 -0.515625 16.082031 -0.269531 15.875 -0.0625 C 15.664062 0.144531 15.425781 0.25 15.15625 0.25 L 1.328125 0.25 C 1.023438 0.25 0.765625 0.125 0.546875 -0.125 C 0.347656 -0.375 0.273438 -0.648438 0.328125 -0.953125 L 4.59375 -27.875 C 4.695312 -28.4375 5.046875 -28.71875 5.640625 -28.71875 Z M 19.453125 -28.71875 "/></g></g></g><g clip-path="url(#433baae953)"><g transform="matrix(1, 0, 0, 1, 95, 160)"><g clip-path="url(#715a3df8ed)"><g clip-path="url(#cd3790beb0)"><path fill="#eb8907" d="M 13.53125 40.910156 C 12.726562 40.941406 11.9375 40.832031 11.152344 40.65625 C 8.847656 40.128906 6.90625 39.007812 5.429688 37.132812 C 4.398438 35.820312 3.628906 34.363281 3.089844 32.785156 C 2.964844 32.410156 2.886719 32.03125 2.894531 31.640625 C 2.894531 31.464844 2.847656 31.351562 2.6875 31.257812 C 2.304688 31.03125 2.007812 30.703125 1.730469 30.351562 C 1.199219 29.671875 0.914062 28.882812 0.699219 28.0625 C 0.683594 28 0.675781 27.9375 0.679688 27.875 C 0.679688 27.683594 0.785156 27.550781 0.960938 27.5 C 1.125 27.453125 1.300781 27.519531 1.394531 27.679688 C 1.441406 27.761719 1.464844 27.855469 1.492188 27.945312 C 1.601562 28.273438 1.691406 28.613281 1.828125 28.929688 C 2.246094 29.917969 2.910156 30.652344 3.960938 30.984375 C 4.171875 31.046875 4.378906 31.128906 4.59375 31.179688 C 6.757812 31.726562 8.609375 32.835938 10.296875 34.265625 C 11.582031 35.351562 12.691406 36.597656 13.65625 37.980469 C 13.714844 38.0625 13.746094 38.179688 13.882812 38.214844 C 13.882812 38.164062 13.886719 38.128906 13.882812 38.101562 C 13.484375 36.023438 13.085938 33.941406 12.6875 31.863281 C 12.582031 31.316406 12.484375 30.765625 12.382812 30.21875 C 12.363281 30.097656 12.339844 29.992188 12.1875 29.972656 C 11.636719 29.898438 11.136719 29.671875 10.628906 29.46875 C 9.105469 28.855469 7.664062 28.101562 6.382812 27.0625 C 4.238281 25.332031 2.570312 23.257812 1.796875 20.558594 C 1.632812 19.980469 1.449219 19.40625 1.359375 18.816406 C 1.296875 18.414062 1.175781 18.050781 1.003906 17.6875 C 0.714844 17.074219 0.667969 16.410156 0.703125 15.738281 C 0.714844 15.488281 0.886719 15.328125 1.097656 15.328125 C 1.304688 15.328125 1.464844 15.492188 1.488281 15.742188 C 1.5 15.84375 1.496094 15.953125 1.492188 16.058594 C 1.460938 17.054688 1.835938 17.863281 2.613281 18.484375 C 2.71875 18.570312 2.820312 18.664062 2.929688 18.75 C 3.839844 19.484375 4.820312 20.113281 5.84375 20.6875 C 6.777344 21.214844 7.707031 21.761719 8.609375 22.335938 C 9.4375 22.871094 10.140625 23.558594 10.691406 24.382812 C 11.015625 24.863281 11.296875 25.371094 11.601562 25.867188 C 11.648438 25.945312 11.699219 26.023438 11.746094 26.097656 C 11.792969 26.027344 11.789062 25.984375 11.785156 25.945312 C 11.691406 24.25 11.597656 22.558594 11.496094 20.867188 C 11.46875 20.421875 11.375 19.996094 11.175781 19.589844 C 10.886719 19.003906 10.578125 18.425781 10.332031 17.828125 C 9.578125 15.972656 9.234375 14.046875 9.367188 12.050781 C 9.496094 10.144531 9.933594 8.304688 10.632812 6.527344 C 11.089844 5.367188 11.667969 4.269531 12.265625 3.175781 C 12.375 2.980469 12.445312 2.777344 12.464844 2.550781 C 12.511719 1.964844 12.574219 1.378906 12.636719 0.792969 C 12.644531 0.695312 12.664062 0.601562 12.691406 0.515625 C 12.726562 0.390625 12.8125 0.316406 12.949219 0.328125 C 13.085938 0.339844 13.144531 0.441406 13.167969 0.5625 C 13.175781 0.601562 13.175781 0.644531 13.175781 0.6875 C 13.179688 1.171875 13.175781 1.652344 13.183594 2.136719 C 13.195312 2.964844 13.355469 3.769531 13.625 4.550781 C 13.917969 5.410156 14.230469 6.257812 14.558594 7.101562 C 15.429688 9.347656 15.558594 11.644531 15.070312 13.996094 C 14.632812 16.105469 13.769531 18.042969 12.765625 19.921875 C 12.417969 20.574219 12.1875 21.230469 12.292969 21.976562 C 12.320312 22.164062 12.304688 22.355469 12.320312 22.542969 C 12.464844 24.203125 12.609375 25.859375 12.753906 27.515625 C 12.769531 27.699219 12.796875 27.878906 12.820312 28.058594 C 12.902344 27.996094 12.929688 27.929688 12.953125 27.863281 C 13.027344 27.644531 13.097656 27.421875 13.179688 27.207031 C 13.65625 25.988281 14.378906 24.933594 15.292969 24.011719 C 17.445312 21.828125 19.820312 19.945312 22.601562 18.613281 C 22.902344 18.46875 23.070312 18.269531 23.132812 17.929688 C 23.324219 16.871094 23.542969 15.820312 23.753906 14.769531 C 23.777344 14.667969 23.804688 14.5625 23.851562 14.472656 C 23.917969 14.351562 24.03125 14.296875 24.171875 14.3125 C 24.320312 14.335938 24.429688 14.417969 24.457031 14.570312 C 24.472656 14.667969 24.472656 14.777344 24.457031 14.882812 C 24.246094 16.09375 24.066406 17.3125 23.804688 18.519531 C 22.964844 22.441406 20.941406 25.660156 17.90625 28.253906 C 17.210938 28.84375 16.46875 29.355469 15.640625 29.742188 C 14.90625 30.082031 14.148438 30.246094 13.335938 30.089844 C 13.269531 30.074219 13.195312 30.070312 13.125 30.0625 C 13.109375 30.378906 14.605469 38.246094 14.746094 38.621094 C 14.761719 38.605469 14.785156 38.597656 14.792969 38.582031 C 14.828125 38.492188 14.859375 38.402344 14.890625 38.316406 C 15.207031 37.269531 15.683594 36.300781 16.289062 35.386719 C 17.492188 33.566406 19.054688 32.113281 20.859375 30.90625 C 21.773438 30.296875 22.75 29.800781 23.71875 29.292969 C 23.917969 29.191406 24.019531 29.058594 24.074219 28.847656 C 24.234375 28.226562 24.402344 27.605469 24.570312 26.988281 C 24.59375 26.894531 24.617188 26.800781 24.664062 26.71875 C 24.738281 26.570312 24.882812 26.5 25.027344 26.53125 C 25.183594 26.558594 25.304688 26.695312 25.3125 26.867188 C 25.3125 26.949219 25.296875 27.035156 25.273438 27.117188 C 24.976562 28.292969 24.710938 29.472656 24.375 30.636719 C 23.679688 33.03125 22.492188 35.160156 20.808594 37.003906 C 19.742188 38.175781 18.570312 39.207031 17.148438 39.921875 C 16.648438 40.171875 16.132812 40.382812 15.621094 40.613281 C 15.480469 40.675781 15.34375 40.746094 15.191406 40.820312 C 15.222656 40.949219 15.246094 41.050781 15.269531 41.152344 C 15.6875 42.78125 16.09375 44.421875 16.53125 46.046875 C 16.851562 47.242188 17.210938 48.433594 17.554688 49.625 C 17.582031 49.730469 17.59375 49.851562 17.714844 49.917969 C 17.730469 49.886719 17.746094 49.871094 17.75 49.851562 C 17.773438 49.742188 17.796875 49.625 17.820312 49.511719 C 18.242188 47.492188 19.03125 45.636719 20.273438 43.984375 C 21.515625 42.34375 23.03125 41.007812 24.757812 39.894531 C 25.777344 39.234375 26.875 38.71875 27.964844 38.195312 C 28.121094 38.117188 28.191406 38.03125 28.195312 37.863281 C 28.195312 37.65625 28.226562 37.445312 28.234375 37.234375 C 28.285156 36.171875 28.28125 35.109375 28.140625 34.046875 C 28.121094 33.90625 28.109375 33.753906 28.121094 33.605469 C 28.132812 33.4375 28.242188 33.332031 28.394531 33.308594 C 28.550781 33.28125 28.683594 33.347656 28.757812 33.5 C 28.78125 33.554688 28.804688 33.617188 28.8125 33.679688 C 28.894531 34.417969 29 35.160156 29.042969 35.90625 C 29.105469 36.929688 29 37.949219 28.863281 38.964844 C 28.679688 40.359375 28.347656 41.71875 27.761719 43.003906 C 26.535156 45.699219 24.699219 47.902344 22.347656 49.683594 C 21.195312 50.558594 19.949219 51.242188 18.546875 51.632812 C 18.488281 51.644531 18.433594 51.675781 18.347656 51.710938 C 18.414062 51.878906 18.46875 52.039062 18.535156 52.1875 C 19.589844 54.554688 20.632812 56.925781 21.699219 59.285156 C 22.460938 60.964844 23.289062 62.613281 24.257812 64.183594 C 24.316406 64.273438 24.378906 64.363281 24.4375 64.453125 C 24.5 64.378906 24.507812 64.328125 24.507812 64.28125 C 24.535156 63.828125 24.546875 63.378906 24.578125 62.925781 C 24.757812 60.414062 25.292969 57.988281 26.261719 55.664062 C 27.40625 52.917969 28.855469 50.347656 30.597656 47.9375 C 30.902344 47.511719 31.171875 47.058594 31.441406 46.609375 C 31.582031 46.371094 31.609375 46.105469 31.519531 45.84375 C 31.234375 45.003906 31.125 44.121094 30.980469 43.25 C 30.96875 43.160156 30.960938 43.058594 30.976562 42.96875 C 31.003906 42.789062 31.148438 42.660156 31.316406 42.648438 C 31.472656 42.632812 31.632812 42.722656 31.699219 42.878906 C 31.734375 42.960938 31.753906 43.058594 31.769531 43.152344 C 31.84375 43.605469 31.90625 44.066406 31.996094 44.523438 C 32.164062 45.394531 32.464844 46.226562 32.777344 47.054688 C 33.300781 48.445312 33.636719 49.875 33.707031 51.359375 C 33.808594 53.546875 33.347656 55.628906 32.5 57.636719 C 31.628906 59.699219 30.433594 61.566406 29.019531 63.296875 C 28.0625 64.460938 27.09375 65.617188 25.925781 66.582031 C 25.894531 66.609375 25.871094 66.644531 25.835938 66.683594 C 25.882812 66.761719 25.917969 66.835938 25.964844 66.90625 C 26.28125 67.378906 26.578125 67.863281 26.914062 68.324219 C 27.988281 69.824219 29.085938 71.300781 30.148438 72.808594 C 31.515625 74.746094 33.199219 76.371094 35.011719 77.878906 C 35.097656 77.953125 35.191406 78.011719 35.328125 78.113281 C 35.320312 77.957031 35.324219 77.867188 35.308594 77.777344 C 35.261719 77.476562 35.21875 77.175781 35.15625 76.875 C 34.886719 75.59375 34.605469 74.320312 34.335938 73.042969 C 34.175781 72.28125 34.066406 71.503906 33.859375 70.753906 C 33.519531 69.53125 33.351562 68.277344 33.253906 67.019531 C 33.117188 65.308594 33.246094 63.609375 33.605469 61.929688 C 34.0625 59.804688 34.851562 57.84375 36.367188 56.230469 C 36.597656 55.988281 36.710938 55.6875 36.640625 55.332031 C 36.59375 55.101562 36.59375 54.867188 36.550781 54.640625 C 36.402344 53.824219 36.246094 53.007812 36.089844 52.191406 C 36.035156 51.914062 36.117188 51.722656 36.339844 51.652344 C 36.554688 51.582031 36.746094 51.691406 36.84375 51.957031 C 36.910156 52.136719 36.96875 52.320312 36.996094 52.507812 C 37.121094 53.390625 37.234375 54.277344 37.355469 55.164062 C 37.402344 55.507812 37.382812 55.863281 37.550781 56.179688 C 38.253906 57.523438 38.933594 58.878906 39.660156 60.210938 C 40.382812 61.527344 40.890625 62.90625 41.132812 64.386719 C 41.402344 66.054688 41.304688 67.703125 40.964844 69.351562 C 40.691406 70.675781 40.242188 71.945312 39.722656 73.191406 C 38.941406 75.054688 38.003906 76.828125 36.757812 78.429688 C 36.699219 78.503906 36.640625 78.578125 36.597656 78.660156 C 36.464844 78.910156 36.496094 79.027344 36.734375 79.183594 C 37.175781 79.472656 37.617188 79.757812 38.0625 80.035156 C 39.75 81.074219 41.417969 82.140625 43.125 83.140625 C 44.324219 83.84375 45.574219 84.460938 46.800781 85.113281 C 47.980469 85.738281 49.109375 86.46875 50.40625 86.851562 C 50.59375 86.90625 50.648438 87.078125 50.578125 87.257812 C 50.457031 87.570312 50.324219 87.625 50.015625 87.484375 C 48.898438 86.96875 47.785156 86.449219 46.699219 85.855469 C 44.679688 84.746094 42.617188 83.710938 40.648438 82.507812 C 39.234375 81.644531 37.792969 80.839844 36.4375 79.890625 C 36.257812 79.765625 36.070312 79.570312 35.878906 79.558594 C 35.6875 79.546875 35.480469 79.71875 35.285156 79.820312 C 33.789062 80.609375 32.234375 81.246094 30.585938 81.648438 C 28.398438 82.179688 26.246094 82.117188 24.121094 81.351562 C 22.703125 80.84375 21.386719 80.144531 20.152344 79.289062 C 19.832031 79.066406 19.496094 78.863281 19.15625 78.683594 C 18.441406 78.300781 17.714844 77.945312 16.988281 77.578125 C 16.347656 77.25 15.863281 76.730469 15.371094 76.230469 C 15.347656 76.207031 15.328125 76.179688 15.3125 76.15625 C 15.207031 75.980469 15.222656 75.792969 15.351562 75.660156 C 15.484375 75.523438 15.699219 75.507812 15.871094 75.632812 C 15.957031 75.691406 16.03125 75.765625 16.101562 75.847656 C 16.589844 76.378906 17.164062 76.792969 17.808594 77.128906 C 18.46875 77.472656 19.15625 77.65625 19.902344 77.65625 C 20.636719 77.65625 21.339844 77.480469 22.046875 77.296875 C 23.421875 76.933594 24.820312 76.6875 26.25 76.660156 C 27.230469 76.644531 28.207031 76.707031 29.179688 76.828125 C 30.6875 77.015625 32.175781 77.289062 33.601562 77.851562 C 33.648438 77.871094 33.707031 77.875 33.761719 77.882812 C 30.234375 74.8125 27.417969 71.164062 24.945312 67.234375 C 24.832031 67.257812 24.75 67.265625 24.667969 67.289062 C 23.484375 67.640625 22.273438 67.867188 21.058594 68.058594 C 19.710938 68.273438 18.355469 68.359375 16.996094 68.195312 C 14.5 67.898438 12.152344 67.136719 9.941406 65.9375 C 8.859375 65.347656 7.898438 64.605469 7.109375 63.644531 C 6.761719 63.226562 6.371094 62.839844 5.980469 62.453125 C 5.65625 62.125 5.398438 61.761719 5.226562 61.335938 C 5.195312 61.257812 5.167969 61.175781 5.152344 61.09375 C 5.117188 60.867188 5.203125 60.703125 5.386719 60.628906 C 5.570312 60.558594 5.75 60.628906 5.867188 60.828125 C 5.90625 60.890625 5.933594 60.960938 5.960938 61.027344 C 6.160156 61.539062 6.503906 61.925781 6.96875 62.210938 C 7.34375 62.4375 7.730469 62.660156 8.125 62.855469 C 9.085938 63.335938 10.105469 63.550781 11.175781 63.546875 C 12.351562 63.546875 13.503906 63.363281 14.664062 63.203125 C 16.253906 62.980469 17.832031 62.996094 19.402344 63.367188 C 20.84375 63.707031 22.246094 64.148438 23.46875 65.019531 C 23.5 65.042969 23.539062 65.046875 23.585938 65.066406 C 22.828125 63.621094 22.046875 62.214844 21.339844 60.773438 C 20.628906 59.316406 19.953125 57.839844 19.320312 56.347656 C 18.695312 54.867188 18.136719 53.363281 17.554688 51.882812 C 17.140625 52.019531 16.75 52.1875 16.34375 52.28125 C 15.71875 52.425781 15.085938 52.542969 14.449219 52.632812 C 13.042969 52.832031 11.660156 52.71875 10.300781 52.269531 C 8.875 51.792969 7.601562 51.035156 6.398438 50.152344 C 5.359375 49.390625 4.378906 48.5625 3.671875 47.460938 C 3.609375 47.363281 3.480469 47.304688 3.371094 47.242188 C 2.9375 46.988281 2.484375 46.761719 2.066406 46.480469 C 1.601562 46.179688 1.324219 45.710938 1.097656 45.21875 C 1.003906 45.019531 1.074219 44.824219 1.242188 44.71875 C 1.40625 44.621094 1.605469 44.65625 1.746094 44.828125 C 1.820312 44.917969 1.878906 45.019531 1.933594 45.121094 C 2.148438 45.519531 2.460938 45.816406 2.84375 46.058594 C 3.664062 46.585938 4.554688 46.871094 5.519531 46.925781 C 6.203125 46.964844 6.886719 46.964844 7.570312 46.980469 C 9.414062 47.03125 11.226562 47.269531 12.972656 47.878906 C 14.394531 48.371094 15.734375 49.023438 16.835938 50.085938 C 16.859375 50.109375 16.898438 50.113281 16.960938 50.148438 C 15.957031 47.054688 15.167969 43.949219 14.425781 40.820312 C 14.097656 40.851562 13.804688 40.886719 13.511719 40.898438 Z M 11.628906 27.800781 C 11.207031 26.75 10.679688 25.757812 10.035156 24.828125 C 9.519531 24.082031 8.882812 23.457031 8.121094 22.972656 C 7.308594 22.449219 6.476562 21.953125 5.632812 21.484375 C 4.542969 20.878906 3.496094 20.21875 2.519531 19.441406 C 2.464844 19.398438 2.402344 19.367188 2.292969 19.296875 C 2.328125 19.453125 2.34375 19.550781 2.367188 19.652344 C 2.976562 22.289062 4.449219 24.382812 6.480469 26.117188 C 7.394531 26.898438 8.394531 27.5625 9.484375 28.078125 C 10.195312 28.417969 10.917969 28.734375 11.636719 29.058594 C 11.742188 29.105469 11.851562 29.132812 12.023438 29.195312 C 11.921875 28.667969 11.800781 28.222656 11.628906 27.796875 Z M 14.425781 13.109375 C 14.703125 11.273438 14.574219 9.476562 13.933594 7.726562 C 13.597656 6.796875 13.265625 5.863281 12.9375 4.929688 C 12.839844 4.652344 12.773438 4.367188 12.679688 4.050781 C 12.628906 4.117188 12.589844 4.152344 12.570312 4.199219 C 11.824219 5.722656 11.113281 7.261719 10.695312 8.914062 C 10.34375 10.300781 10.117188 11.699219 10.152344 13.132812 C 10.1875 14.679688 10.507812 16.164062 11.097656 17.589844 C 11.328125 18.148438 11.621094 18.6875 11.890625 19.234375 C 11.925781 19.308594 11.988281 19.367188 12.054688 19.453125 C 12.117188 19.390625 12.179688 19.351562 12.210938 19.292969 C 13.234375 17.335938 14.085938 15.316406 14.421875 13.105469 Z M 14.382812 29.324219 C 14.824219 29.25 15.230469 29.078125 15.621094 28.867188 C 16.472656 28.414062 17.230469 27.828125 17.9375 27.175781 C 20.148438 25.132812 21.746094 22.695312 22.65625 19.8125 C 22.691406 19.707031 22.714844 19.589844 22.742188 19.476562 C 22.746094 19.460938 22.730469 19.441406 22.714844 19.394531 C 22.632812 19.4375 22.546875 19.46875 22.472656 19.515625 C 20.203125 20.757812 18.179688 22.328125 16.316406 24.117188 C 15.53125 24.871094 14.824219 25.691406 14.316406 26.667969 C 13.980469 27.3125 13.6875 27.976562 13.601562 28.714844 C 13.582031 28.898438 13.574219 29.085938 13.5625 29.296875 C 13.863281 29.390625 14.125 29.367188 14.386719 29.324219 Z M 13.992188 39.902344 C 12.710938 37.855469 11.222656 35.984375 9.304688 34.488281 C 8.179688 33.609375 6.996094 32.828125 5.640625 32.355469 C 5.015625 32.136719 4.382812 31.957031 3.6875 31.738281 C 3.730469 31.984375 3.734375 32.183594 3.796875 32.367188 C 4.402344 34.207031 5.300781 35.890625 6.640625 37.304688 C 7.953125 38.695312 9.597656 39.511719 11.457031 39.902344 C 12.175781 40.054688 12.902344 40.183594 13.644531 40.15625 C 13.785156 40.148438 13.925781 40.125 14.09375 40.105469 C 14.046875 40.011719 14.027344 39.953125 13.996094 39.898438 Z M 15.691406 39.71875 C 17.4375 39.042969 18.875 37.9375 20.132812 36.566406 C 21.765625 34.789062 22.914062 32.746094 23.605469 30.4375 C 23.625 30.375 23.628906 30.316406 23.652344 30.203125 C 23.5625 30.234375 23.519531 30.246094 23.484375 30.265625 C 21.984375 31.101562 20.523438 32 19.246094 33.167969 C 17.914062 34.390625 16.808594 35.785156 16.0625 37.445312 C 15.757812 38.128906 15.527344 38.84375 15.382812 39.578125 C 15.371094 39.648438 15.371094 39.71875 15.355469 39.847656 C 15.488281 39.796875 15.59375 39.761719 15.691406 39.71875 Z M 18.941406 50.679688 C 20.121094 50.257812 21.183594 49.613281 22.164062 48.835938 C 24.257812 47.171875 25.914062 45.152344 27.03125 42.710938 C 27.554688 41.5625 27.859375 40.351562 28.042969 39.105469 C 28.042969 39.085938 28.039062 39.0625 28.027344 39.003906 C 27.96875 39.019531 27.929688 39.023438 27.894531 39.042969 C 26.359375 39.839844 24.851562 40.683594 23.511719 41.789062 C 21.851562 43.164062 20.46875 44.753906 19.566406 46.734375 C 19.015625 47.9375 18.648438 49.199219 18.460938 50.507812 C 18.449219 50.601562 18.449219 50.691406 18.445312 50.832031 C 18.632812 50.773438 18.792969 50.738281 18.945312 50.679688 Z M 35.914062 76.550781 C 36.007812 77.003906 36.070312 77.460938 36.160156 77.984375 C 36.253906 77.878906 36.296875 77.832031 36.332031 77.785156 C 38.042969 75.273438 39.351562 72.574219 40.097656 69.621094 C 40.445312 68.234375 40.585938 66.824219 40.464844 65.390625 C 40.324219 63.75 39.851562 62.214844 39.066406 60.765625 C 38.398438 59.535156 37.757812 58.289062 37.105469 57.054688 C 37.050781 56.953125 37 56.851562 36.921875 56.703125 C 36.757812 56.894531 36.609375 57.042969 36.492188 57.207031 C 35.878906 58.070312 35.363281 58.988281 35 59.984375 C 34.445312 61.507812 34.148438 63.082031 34.042969 64.703125 C 33.929688 66.441406 34.117188 68.152344 34.488281 69.847656 C 34.96875 72.078125 35.445312 74.316406 35.917969 76.550781 Z M 33.660156 78.710938 C 32.042969 78.070312 30.347656 77.75 28.625 77.574219 C 27.558594 77.464844 26.484375 77.421875 25.410156 77.507812 C 24.316406 77.59375 23.25 77.828125 22.183594 78.085938 C 21.664062 78.214844 21.136719 78.308594 20.609375 78.417969 C 20.5625 78.429688 20.515625 78.441406 20.433594 78.464844 C 20.488281 78.523438 20.515625 78.5625 20.550781 78.589844 C 22.175781 79.734375 23.925781 80.609375 25.886719 81.019531 C 27.335938 81.324219 28.773438 81.242188 30.210938 80.925781 C 31.761719 80.582031 33.21875 79.976562 34.648438 79.308594 C 34.683594 79.292969 34.714844 79.265625 34.816406 79.195312 C 34.390625 79.015625 34.027344 78.855469 33.660156 78.707031 Z M 25.3125 65.605469 C 25.316406 65.738281 25.347656 65.867188 25.367188 65.996094 C 25.394531 66.003906 25.421875 66.011719 25.453125 66.023438 C 25.539062 65.949219 25.628906 65.882812 25.707031 65.800781 C 26.875 64.699219 27.882812 63.453125 28.875 62.199219 C 30.023438 60.757812 30.960938 59.191406 31.699219 57.5 C 32.511719 55.632812 32.980469 53.691406 32.925781 51.644531 C 32.890625 50.175781 32.574219 48.761719 32.050781 47.394531 C 32.035156 47.351562 32.003906 47.308594 31.972656 47.253906 C 31.933594 47.289062 31.90625 47.304688 31.890625 47.328125 C 31.171875 48.441406 30.433594 49.542969 29.734375 50.667969 C 28.597656 52.496094 27.609375 54.398438 26.824219 56.40625 C 26.167969 58.09375 25.742188 59.835938 25.507812 61.632812 C 25.335938 62.949219 25.273438 64.273438 25.3125 65.605469 Z M 19.355469 64.171875 C 17.792969 63.8125 16.230469 63.796875 14.652344 64.007812 C 13.632812 64.144531 12.605469 64.257812 11.578125 64.335938 C 10.671875 64.402344 9.769531 64.292969 8.898438 64.019531 C 8.789062 63.988281 8.679688 63.957031 8.539062 63.976562 C 8.621094 64.050781 8.699219 64.128906 8.78125 64.199219 C 9.503906 64.804688 10.316406 65.273438 11.164062 65.675781 C 12.964844 66.527344 14.84375 67.113281 16.824219 67.378906 C 18.074219 67.542969 19.328125 67.519531 20.570312 67.328125 C 21.710938 67.152344 22.847656 66.921875 23.984375 66.714844 C 24.085938 66.695312 24.1875 66.660156 24.34375 66.617188 C 24.234375 66.523438 24.175781 66.46875 24.109375 66.414062 C 22.703125 65.292969 21.109375 64.578125 19.351562 64.171875 Z M 16.804688 51.09375 C 15.957031 50.1875 14.914062 49.5625 13.789062 49.0625 C 12.40625 48.4375 10.945312 48.085938 9.441406 47.933594 C 8.636719 47.851562 7.824219 47.832031 7.019531 47.796875 C 6.324219 47.765625 5.632812 47.746094 4.890625 47.722656 C 5.074219 47.996094 5.292969 48.203125 5.515625 48.40625 C 6.519531 49.3125 7.609375 50.097656 8.796875 50.75 C 9.746094 51.269531 10.742188 51.644531 11.808594 51.835938 C 12.644531 51.980469 13.484375 51.976562 14.324219 51.859375 C 14.980469 51.773438 15.632812 51.660156 16.285156 51.542969 C 16.507812 51.503906 16.726562 51.417969 16.996094 51.335938 C 16.914062 51.230469 16.863281 51.160156 16.804688 51.097656 Z M 16.804688 51.09375 " fill-opacity="1" fill-rule="nonzero"/></g></g></g></g></svg>